Coordinates
version=1
nRows=4
nColumns=63
inDegrees=yes

Units are S.I. units (second, meters, Newtons, ...)
If the header above contains a line with 'inDegrees', this indicates whether rotational values are in degrees (yes) or radians (no).

endheader
time	pelvis_tilt	pelvis_list	pelvis_rotation	pelvis_tx	pelvis_ty	pelvis_tz	hip_flexion_r	hip_adduction_r	hip_rotation_r	knee_angle_r	knee_angle_r_beta	ankle_angle_r	subtalar_angle_r	mtp_angle_r	hip_flexion_l	hip_adduction_l	hip_rotation_l	knee_angle_l	knee_angle_l_beta	ankle_angle_l	subtalar_angle_l	mtp_angle_l	L5_S1_Flex_Ext	L5_S1_Lat_Bending	L5_S1_axial_rotation	L4_L5_Flex_Ext	L4_L5_Lat_Bending	L4_L5_axial_rotation	L3_L4_Flex_Ext	L3_L4_Lat_Bending	L3_L4_axial_rotation	L2_L3_Flex_Ext	L2_L3_Lat_Bending	L2_L3_axial_rotation	L1_L2_Flex_Ext	L1_L2_Lat_Bending	L1_L2_axial_rotation	L1_T12_Flex_Ext	L1_T12_Lat_Bending	L1_T12_axial_rotation	Abs_r3	Abs_r2	Abs_r1	Abs_t1	Abs_t2	neck_flexion	neck_bending	neck_rotation	arm_flex_r	arm_add_r	arm_rot_r	elbow_flex_r	pro_sup_r	wrist_flex_r	wrist_dev_r	arm_flex_l	arm_add_l	arm_rot_l	elbow_flex_l	pro_sup_l	wrist_flex_l	wrist_dev_l
      0.00000000	      3.80071923	     -3.89007933	     91.18926070	      0.22939502	      0.82096876	      0.63076881	     -2.19672014	      4.99084695	     -0.49441690	      2.79679330	      0.04881325	     21.74784400	    -13.86418528	      0.00000000	     -2.38074879	     -5.39499472	     -2.46449395	      3.86136222	      0.06739348	     34.58325140	      8.27489199	      0.00000000	      0.21549557	      0.98330670	     -0.79148212	      0.40019683	      1.30779791	     -0.84094975	      0.35403768	      2.39081190	     -0.84094975	      0.24628989	      2.39081190	     -0.69254685	      0.20010919	      2.00515901	     -0.64307922	      0.12313417	      1.52314207	     -0.59361159	      1.53926334	     11.12336201	     -4.40198610	      0.00000000	      0.00000000	     25.16142208	     -5.43967072	      0.84500102	      0.80311521	    -23.25775974	     45.73217036	     83.26341138	     86.96519067	     24.68743999	     14.47703645	      0.74638737	    -14.00284660	     41.04233041	     77.05010533	     87.39026452	     24.90443785	     24.30549204
      0.02564103	      3.80935109	     -3.71770594	     90.30853175	      0.22986799	      0.82123746	      0.62768749	     -2.66715664	      4.95205426	      0.93755628	      2.77738608	      0.04847453	     21.28669519	    -15.37666547	      0.00000000	     -3.13500965	     -5.30889653	     -3.64590745	      3.40780722	      0.05947746	     34.06583815	      8.56736715	      0.00000000	      0.22071669	      0.96996120	     -0.40773649	      0.40989297	      1.29004840	     -0.43322002	      0.36261545	      2.35836366	     -0.43322002	      0.25225711	      2.35836366	     -0.35676943	      0.20495752	      1.97794488	     -0.33128590	      0.12611752	      1.50246990	     -0.30580237	      1.57655727	     10.97239509	     -2.26770802	      0.00000000	      0.00000000	     25.48325986	     -5.89899303	     -1.54415789	      2.34263480	    -22.15797809	     47.90697904	     74.95503605	     87.88496746	     17.37904535	     21.10645626	      2.57853154	    -11.00342401	     41.91354583	     67.69793482	     86.65305986	     16.71475834	     18.69334719
      0.05128205	      3.81192031	     -3.49986795	     89.48998928	      0.23038497	      0.82142220	      0.62495361	     -3.17824942	      4.89535620	      2.07553093	      2.70751038	      0.04725497	     20.68634921	    -16.42049344	      0.00000000	     -3.89825267	     -5.21396962	     -4.95256522	      2.97684050	      0.05195567	     33.79320938	      9.10077768	      0.00000000	      0.21648650	      0.96120353	     -0.15566551	      0.40203709	      1.27840069	     -0.16539461	      0.35566568	      2.33707026	     -0.16539461	      0.24742243	      2.33707026	     -0.13620733	      0.20102937	      1.96008623	     -0.12647823	      0.12370039	      1.48890426	     -0.11674914	      1.54634145	     10.87332654	     -0.86576489	      0.00000000	      0.00000000	     25.62736148	     -5.92848733	     -2.86062398	      4.12035169	    -20.66763864	     50.96971675	     67.41044654	     88.20934229	     10.52919735	     23.15841413	      3.74633765	     -8.05707566	     41.93256023	     59.94445475	     84.87667584	     11.47152592	     15.62635632
      0.07692308	      3.80977945	     -3.24898721	     88.69858377	      0.23099472	      0.82171764	      0.62282190	     -3.64200668	      4.82038011	      2.80452865	      2.71253651	      0.04734269	     20.14170335	    -16.86269605	      0.00000000	     -4.61778721	     -5.10565171	     -5.95269082	      2.62479386	      0.04581130	     33.61254356	      9.33136059	      0.00000000	      0.20155070	      0.95952192	     -0.01133876	      0.37429980	      1.27616416	     -0.01204743	      0.33112764	      2.33298160	     -0.01204743	      0.23035229	      2.33298160	     -0.00992142	      0.18715998	      1.95665711	     -0.00921274	      0.11516607	      1.48629946	     -0.00850407	      1.43965649	     10.85430390	     -0.06306279	      0.00000000	      0.00000000	     25.58150490	     -5.90603378	     -3.32191787	      6.08298058	    -19.21626611	     54.85538669	     60.92964146	     88.35649772	      5.04902856	     21.57229937	      4.32577334	     -5.37640700	     40.96881297	     53.62353673	     82.65269177	      8.60441695	     13.83690545
